<svg width="46" height="29" viewBox="0 0 46 29" fill="none" xmlns="http://www.w3.org/2000/svg">
<g id="&#226;&#128;&#148;&#62;">
<path d="M0.861405 14.6645C0.968071 14.1738 1.13874 13.7898 1.3734 13.5125C1.60807 13.2352 1.9174 13.0965 2.3014 13.0965H43.7734C44.1574 13.0965 44.4134 13.2352 44.5414 13.5125C44.6694 13.7898 44.6694 14.1738 44.5414 14.6645C44.4774 15.1125 44.3281 15.4752 44.0934 15.7525C43.8587 16.0298 43.5387 16.1685 43.1334 16.1685H1.6614C1.2774 16.1685 1.0214 16.0298 0.893405 15.7525C0.786738 15.4752 0.776071 15.1125 0.861405 14.6645Z" fill="#1E1E1E"/>
<path d="M42.4296 14.7285L26.0776 3.59251C25.651 3.27251 25.3523 2.95251 25.1816 2.63251C25.0323 2.29117 24.9896 1.94984 25.0536 1.60851C25.2456 0.883174 25.779 0.520508 26.6536 0.520508C27.0163 0.520508 27.3576 0.63784 27.6776 0.872505C28.019 1.08584 28.4243 1.35251 28.8936 1.67251L44.5416 12.1365C45.6936 12.9045 46.163 13.8005 45.9496 14.8245C45.8216 15.3365 45.5336 15.7845 45.0856 16.1685C44.6376 16.5525 44.0723 16.9152 43.3896 17.2565L21.9496 27.9765C21.331 28.2752 20.8083 28.4992 20.3816 28.6485C19.955 28.7978 19.5603 28.8725 19.1976 28.8725C18.7709 28.8725 18.483 28.7232 18.3336 28.4245C18.2056 28.1258 18.1949 27.7525 18.3016 27.3045C18.3869 26.9632 18.6003 26.6218 18.9416 26.2805C19.283 25.9392 19.7416 25.6192 20.3176 25.3205L42.5576 14.2485L42.4296 14.7285Z" fill="#1E1E1E"/>
</g>
</svg>
