<svg width="405" height="556" viewBox="0 0 405 556" fill="none" xmlns="http://www.w3.org/2000/svg">
<path d="M89.829 81.7318C89.829 81.7318 90.1776 81.3173 90.8749 80.4883C91.5722 79.6594 92.4778 78.5618 93.5918 77.1956C94.7318 75.815 95.9788 74.2899 97.3329 72.6204C98.687 70.9509 100.028 69.2887 101.356 67.6336C102.696 65.9381 103.902 64.4014 104.976 63.0236L105.07 64.7579C104.963 64.1364 104.785 63.5379 104.534 62.9625C104.309 62.3727 103.994 61.7134 103.59 60.9847C102.739 59.4492 101.704 58.441 100.484 57.9602C99.2505 57.4533 97.918 57.5967 96.4865 58.3904C95.1332 59.1407 94.018 60.3205 93.1408 61.9297C92.2897 63.5244 91.7187 65.4403 91.4277 67.6772C91.1368 69.9141 91.181 72.3565 91.5602 75.0044C91.9395 77.6523 92.7017 80.3772 93.8468 83.1789C95.4534 87.1199 97.4008 89.6809 99.689 90.8622C101.989 92.0029 104.349 91.9023 106.769 90.5603C107.888 89.9399 108.915 89.0303 109.85 87.8315C110.81 86.6184 111.553 85.1348 112.078 83.3808C112.628 81.6124 112.821 79.5661 112.655 77.2421C112.705 76.534 112.815 75.9965 112.986 75.6296C113.157 75.2626 113.413 75.0186 113.754 74.8975C114.107 74.736 114.442 74.7883 114.76 75.0545C115.104 75.3062 115.346 75.8354 115.487 76.6419C115.916 78.5817 115.952 80.6715 115.594 82.9112C115.222 85.1249 114.361 87.253 113.009 89.2953C111.684 91.3232 109.746 93.0443 107.195 94.4584C104.697 95.8436 102.33 96.4241 100.096 96.1996C97.8478 95.9491 95.8211 94.9632 94.016 93.2419C92.1966 91.4946 90.6219 89.0841 89.2921 86.0105C87.9478 82.9109 87.1093 79.803 86.7767 76.6869C86.4296 73.5448 86.5434 70.5894 87.118 67.8209C87.7187 65.038 88.7324 62.5705 90.1592 60.4184C91.5716 58.2402 93.3708 56.5451 95.557 55.333C97.2747 54.3806 98.8604 53.9267 100.314 53.9713C101.78 53.9755 103.102 54.3653 104.28 55.141C105.485 55.9021 106.536 56.9696 107.434 58.3433C107.674 58.6528 107.889 58.8567 108.079 58.9551C108.282 59.0131 108.5 58.9772 108.734 58.8473C108.992 58.6365 109.266 58.5183 109.558 58.4925C109.85 58.4667 110.107 58.5623 110.33 58.7793C110.636 59.0859 110.745 59.4676 110.658 59.9242C110.583 60.3403 110.292 60.8589 109.785 61.4799C108.799 62.7075 107.66 64.1213 106.37 65.7215C105.079 67.3217 103.744 68.9637 102.364 70.6477C100.995 72.2911 99.6456 73.9072 98.3147 75.4957C97.0098 77.0699 95.8379 78.4852 94.7992 79.7416C93.7461 80.972 92.9027 81.967 92.2691 82.7267C91.6615 83.4719 91.3576 83.8445 91.3576 83.8445L89.829 81.7318Z" fill="white"/>
<path d="M132.626 58.5568L134.917 61.8854C134.996 65.4048 134.887 68.4539 134.589 71.0327C134.291 73.6115 133.832 75.7576 133.213 77.471C132.594 79.1845 131.824 80.5405 130.903 81.539C129.972 82.5094 128.9 83.1976 127.687 83.6037C125.881 84.208 124.356 84.1063 123.113 83.2984C121.86 82.4624 120.932 81.1884 120.328 79.4764C119.799 77.8019 119.68 76.414 119.97 75.3127C120.279 74.1737 120.899 73.4483 121.831 73.1367C122.508 72.9101 123.11 72.9752 123.638 73.3322C124.193 73.6798 124.589 74.2063 124.825 74.9118C124.986 75.3915 125.095 75.9043 125.152 76.45C125.228 76.9581 125.355 77.4802 125.535 78.0164C125.742 78.6372 126.068 79.0933 126.51 79.3845C126.943 79.6475 127.513 79.6609 128.218 79.4248C129.065 79.1415 129.831 78.336 130.516 77.0084C131.192 75.6525 131.731 73.511 132.132 70.5839C132.533 67.6568 132.698 63.6478 132.626 58.5568ZM133.335 48.8586L141.518 69.3731C142.188 71.0003 142.923 72.1664 143.724 72.8712C144.524 73.5761 145.489 73.7396 146.618 73.3619C147.549 73.0503 148.259 72.4989 148.747 71.7079C149.255 70.8792 149.677 69.7965 150.014 68.4598C150.267 67.8102 150.544 67.3252 150.845 67.0049C151.146 66.6846 151.48 66.5572 151.847 66.6226C152.252 66.7069 152.516 66.9795 152.638 67.4404C152.78 67.8637 152.814 68.433 152.739 69.1483C152.628 70.3153 152.318 71.4543 151.812 72.5654C151.295 73.6482 150.6 74.6182 149.726 75.4756C148.842 76.3047 147.751 76.9365 146.453 77.3709C145.042 77.8431 143.767 77.9246 142.628 77.6153C141.508 77.2685 140.505 76.5686 139.619 75.5156C138.733 74.4627 137.946 73.0944 137.257 71.4107L129.074 50.8962C128.432 49.2595 127.711 48.0888 126.911 47.3839C126.11 46.6791 125.145 46.5155 124.016 46.8933C123.085 47.2049 122.361 47.761 121.844 48.5614C121.318 49.3337 120.91 50.4117 120.62 51.7953C120.395 52.4355 120.118 52.9205 119.789 53.2502C119.46 53.58 119.112 53.7121 118.745 53.6467C118.368 53.553 118.109 53.2945 117.968 52.8712C117.845 52.4102 117.806 51.8268 117.853 51.121C117.983 49.9163 118.292 48.7773 118.78 47.704C119.287 46.5929 119.982 45.6229 120.866 44.7937C121.778 43.9551 122.869 43.3234 124.139 42.8984C125.578 42.4168 126.858 42.3494 127.978 42.6963C129.117 43.0055 130.129 43.6866 131.015 44.7395C131.891 45.7642 132.665 47.1373 133.335 48.8586ZM137.667 60.1178L135.391 56.8315C135.302 53.5662 135.398 50.7571 135.677 48.4041C135.985 46.0418 136.453 44.0651 137.082 42.474C137.711 40.8829 138.486 39.6351 139.407 38.7306C140.319 37.7979 141.353 37.138 142.51 36.7508C144.344 36.137 145.888 36.2481 147.14 37.0842C148.383 37.892 149.293 39.1567 149.869 40.8781C150.398 42.5525 150.508 43.9593 150.199 45.0983C149.908 46.1996 149.297 46.9061 148.366 47.2178C147.717 47.435 147.115 47.3698 146.559 47.0222C146.003 46.6747 145.608 46.1482 145.371 45.4427C145.239 44.9535 145.135 44.4549 145.059 43.9468C144.974 43.4105 144.841 42.8743 144.662 42.3381C144.454 41.7172 144.134 41.2753 143.701 41.0123C143.286 40.7117 142.726 40.6794 142.021 40.9155C141.428 41.1138 140.85 41.5897 140.286 42.3432C139.741 43.059 139.258 44.1465 138.836 45.6056C138.443 47.0552 138.125 48.9659 137.883 51.3376C137.669 53.6999 137.597 56.6266 137.667 60.1178Z" fill="white"/>
<path d="M173.251 27.5845L164.165 86.4358C164.024 87.4438 164.105 88.1984 164.409 88.6996C164.743 89.197 165.286 89.4576 166.039 89.4814L168.741 89.4961C169.343 89.5093 169.792 89.6169 170.087 89.8191C170.417 90.0471 170.606 90.3529 170.655 90.7367C170.719 91.2385 170.578 91.6615 170.232 92.0057C169.915 92.3461 169.432 92.5578 168.783 92.6408L156.015 94.4972C155.074 94.6474 154.393 94.5994 153.972 94.3533C153.554 94.1366 153.315 93.7922 153.255 93.3199C153.206 92.9362 153.325 92.5759 153.612 92.2393C153.873 91.9359 154.446 91.6077 155.331 91.2546C156.275 90.894 157.008 90.5303 157.531 90.1634C158.029 89.8299 158.411 89.421 158.68 88.9367C158.952 88.482 159.133 87.9038 159.223 87.2023L168.37 28.4782C168.428 27.9908 168.519 27.5291 168.643 27.0933C168.767 26.6574 168.914 26.2786 169.083 25.9571C169.281 25.6317 169.5 25.3487 169.739 25.1082C169.979 24.8676 170.24 24.6842 170.524 24.5579C170.804 24.4021 171.106 24.3035 171.431 24.262C172.228 24.1602 172.77 24.406 173.055 24.9995C173.337 25.5634 173.403 26.4251 173.251 27.5845ZM162.368 42.7901C161.994 43.378 161.609 43.7721 161.215 43.9725C160.82 44.1729 160.433 44.1924 160.052 44.031C159.634 43.8144 159.419 43.4219 159.407 42.8535C159.39 42.2556 159.567 41.6479 159.939 41.0305C161.055 38.9678 162.405 37.2054 163.988 35.7431C165.601 34.277 167.43 33.0983 169.476 32.2068C171.522 31.3154 173.785 30.7112 176.265 30.3944C179.217 30.0173 181.831 30.4032 184.108 31.5523C186.414 32.6977 188.206 34.6287 189.483 37.3456C190.79 40.0586 191.469 43.6168 191.522 48.0201C191.589 52.3016 190.963 56.0867 189.643 59.3753C188.319 62.6344 186.523 65.2489 184.255 67.2188C181.983 69.1591 179.445 70.3084 176.64 70.6667C173.777 71.0326 171.292 70.7201 169.186 69.7292C167.108 68.7346 165.522 67.0023 164.426 64.5323L166.765 63.1085C167.714 64.6672 168.87 65.8545 170.235 66.6701C171.625 67.4526 173.412 67.7042 175.596 67.4251C177.603 67.1686 179.413 66.1874 181.025 64.4814C182.663 62.7422 183.949 60.4779 184.882 57.6886C185.845 54.8955 186.313 51.7457 186.285 48.2393C186.293 44.5482 185.815 41.6243 184.849 39.4677C183.88 37.2815 182.574 35.7533 180.933 34.883C179.322 34.0089 177.512 33.7001 175.505 33.9565C172.671 34.3186 170.162 35.2242 167.977 36.6734C165.788 38.0931 163.919 40.132 162.368 42.7901Z" fill="white"/>
<path d="M218.677 12.8761L204.498 58.763C203.918 60.7142 203.646 62.1517 203.685 63.0753C203.753 63.9996 204.233 64.472 205.126 64.4924C205.84 64.5088 206.573 64.3321 207.326 63.9624C208.109 63.5637 208.929 62.8234 209.788 61.7418C210.123 61.3922 210.411 61.1756 210.651 61.0918C210.921 60.9789 211.16 60.9695 211.366 61.0635C211.751 61.1617 211.952 61.4639 211.97 61.9704C212.018 62.4775 211.826 63.0684 211.394 63.7431C210.745 64.7998 209.964 65.7196 209.053 66.5024C208.143 67.2852 207.132 67.8722 206.022 68.2635C204.911 68.6845 203.715 68.8804 202.436 68.8511C201.127 68.8211 200.124 68.4557 199.425 67.7551C198.757 67.0552 198.408 66.0351 198.379 64.695C198.351 63.3251 198.642 61.6798 199.251 59.7589L213.382 14.0049C213.963 12.0537 214.219 10.6159 214.151 9.69156C214.112 8.76794 213.647 8.29589 212.754 8.27544C212.368 8.26657 211.934 8.34593 211.454 8.51353C210.974 8.68112 210.401 9.02517 209.734 9.54567C209.219 9.92084 208.812 10.1645 208.512 10.2767C208.241 10.3896 207.989 10.3689 207.754 10.2147C207.4 10.0577 207.229 9.74127 207.24 9.26527C207.281 8.78994 207.517 8.2298 207.948 7.58483C208.47 6.91216 209.109 6.28685 209.866 5.70889C210.624 5.13093 211.467 4.68889 212.397 4.38277C213.328 4.04691 214.314 3.89091 215.355 3.91477C216.694 3.94546 217.697 4.31077 218.366 5.01072C219.064 5.71134 219.443 6.73206 219.501 8.07288C219.56 9.38395 219.286 10.985 218.677 12.8761Z" fill="white"/>
<path d="M244.581 33.0388C247.66 33.57 250.038 34.8408 251.714 36.8513C253.42 38.8668 254.394 41.3601 254.636 44.3311C254.879 47.3021 254.308 50.5254 252.923 54.0008C251.735 57.2083 250.308 59.9668 248.642 62.2763C246.975 64.5858 245.127 66.4564 243.099 67.8881C241.075 69.2904 238.932 70.2494 236.668 70.7649C234.435 71.2854 232.115 71.3383 229.711 70.9235C226.778 70.4176 224.434 69.213 222.679 67.3096C220.953 65.4114 219.954 62.9742 219.682 59.9982C219.44 57.0272 220.031 53.6866 221.457 49.9766C222.545 46.9936 223.891 44.3569 225.494 42.0667C227.097 39.7764 228.888 37.881 230.868 36.3805C232.878 34.8851 235.034 33.8529 237.336 33.2838C239.644 32.6854 242.059 32.6037 244.581 33.0388ZM231.056 67.849C232.141 68.0361 233.287 67.9619 234.492 67.6263C235.697 67.2907 236.914 66.7154 238.142 65.9005C239.374 65.0563 240.569 63.9941 241.726 62.714C242.883 61.4339 243.985 59.948 245.032 58.2563C246.079 56.5646 247.009 54.6717 247.824 52.5775C249.183 49.2487 249.791 46.4244 249.648 44.1046C249.509 41.7555 248.845 39.9196 247.653 38.5968C246.497 37.2497 245.068 36.4295 243.367 36.136C242.282 35.9489 241.12 36.0352 239.88 36.3951C238.674 36.7307 237.455 37.3206 236.223 38.1649C234.99 39.0091 233.78 40.0688 232.594 41.3438C231.437 42.6239 230.335 44.1098 229.288 45.8015C228.276 47.4689 227.365 49.335 226.556 51.3999C225.216 54.7924 224.586 57.6582 224.665 59.9972C224.75 62.3068 225.373 64.1205 226.535 65.4382C227.702 66.7267 229.209 67.5302 231.056 67.849Z" fill="white"/>
<path d="M267.179 46.5088C266.827 46.2563 266.698 45.9099 266.793 45.4696C266.887 45.0293 267.193 44.6171 267.709 44.2332C268.715 43.4552 269.787 42.8435 270.927 42.3979C272.076 41.9243 273.221 41.6389 274.362 41.5416C275.531 41.4544 276.62 41.5913 277.629 41.9524C278.806 42.3736 279.587 43.0167 279.972 43.8818C280.396 44.7288 280.392 45.7547 279.961 46.9595C279.731 47.6039 279.352 48.3532 278.825 49.2076C278.308 50.034 277.56 51.0623 276.582 52.2927C275.633 53.5331 274.331 55.1376 272.678 57.1061C271.064 59.0566 269.019 61.5013 266.545 64.4401L265.434 64.2321C268.285 60.4168 271.004 57.281 273.59 54.8248C276.176 52.3685 278.584 50.4966 280.815 49.2091C283.056 47.8935 285.075 47.0673 286.87 46.7303C288.666 46.3933 290.195 46.4504 291.455 46.9018C292.996 47.4534 294.003 48.3509 294.474 49.5943C294.984 50.8198 294.943 52.259 294.351 53.912C293.98 54.9487 293.491 55.785 292.884 56.4212C292.287 57.0293 291.652 57.4341 290.979 57.6358C290.306 57.8375 289.648 57.823 289.003 57.5924C288.275 57.3316 287.808 56.9589 287.602 56.4744C287.424 55.9998 287.441 55.4684 287.651 54.88C287.832 54.3757 288.072 53.9245 288.373 53.5263C288.701 53.1382 288.986 52.608 289.227 51.9356C289.387 51.4873 289.348 51.1099 289.11 50.8035C288.883 50.469 288.488 50.2015 287.928 50.0009C286.667 49.5496 284.93 49.8126 282.715 50.7898C280.538 51.7491 278.092 53.4178 275.376 55.7959C272.698 58.156 269.949 61.1547 267.13 64.7918C265.551 66.8185 264.488 68.287 263.941 69.1974C263.422 70.1178 263.052 70.8862 262.831 71.5026C262.571 72.2311 262.454 72.8215 262.482 73.2739C262.519 73.6983 262.572 74.0807 262.64 74.421C262.708 74.7614 262.667 75.1417 262.516 75.5619C262.306 76.1503 261.896 76.5884 261.287 76.8762C260.716 77.146 260.013 77.2576 259.176 77.211C258.367 77.1743 257.515 76.9956 256.618 76.6746C255.666 76.3336 255.045 75.8588 254.758 75.25C254.508 74.6233 254.61 73.8067 255.066 72.8001C255.549 71.8036 256.413 70.5801 257.66 69.1298L272.305 50.9985C273.745 49.27 274.584 47.9424 274.821 47.0158C275.096 46.0712 274.785 45.4384 273.888 45.1174C273.384 44.9369 272.734 44.9414 271.939 45.131C271.173 45.3307 270.108 45.7873 268.747 46.5009C268.376 46.6528 268.064 46.7306 267.81 46.7345C267.555 46.7383 267.345 46.6631 267.179 46.5088Z" fill="white"/>
<path d="M294.115 70.278C294.115 70.278 294.652 70.3541 295.724 70.5064C296.797 70.6587 298.207 70.8454 299.956 71.0664C301.731 71.3019 303.685 71.5518 305.818 71.8159C307.952 72.08 310.072 72.3369 312.179 72.5865C314.327 72.8246 316.27 73.034 318.007 73.2146L316.586 74.213C317.056 73.7935 317.469 73.3249 317.824 72.8072C318.206 72.3039 318.598 71.688 319.002 70.9592C319.854 69.4237 320.16 68.0115 319.922 66.7226C319.698 65.4077 318.871 64.3534 317.439 63.5597C316.086 62.8094 314.495 62.4885 312.665 62.597C310.862 62.7199 308.934 63.2505 306.883 64.1887C304.831 65.1269 302.783 66.4582 300.738 68.1826C298.693 69.907 296.786 71.9969 295.016 74.4524C292.525 77.9027 291.384 80.9111 291.595 83.4776C291.845 86.0325 293.181 87.9809 295.601 89.3229C296.72 89.9434 298.036 90.3325 299.548 90.4901C301.086 90.6623 302.737 90.5062 304.503 90.022C306.295 89.5523 308.132 88.6316 310.015 87.2599C310.642 86.927 311.157 86.7358 311.558 86.6863C311.96 86.6369 312.303 86.7247 312.586 86.9499C312.91 87.1635 313.043 87.4756 312.986 87.8861C312.954 88.311 312.634 88.7968 312.025 89.3436C310.607 90.7351 308.853 91.8725 306.764 92.7559C304.689 93.6132 302.428 94.0096 299.98 93.9452C297.558 93.8953 295.071 93.1632 292.521 91.7491C290.022 90.3638 288.277 88.6643 287.283 86.6506C286.305 84.6108 286.067 82.3695 286.571 79.9267C287.089 77.4579 288.3 74.8454 290.202 72.0892C292.119 69.3071 294.311 66.9495 296.777 65.0167C299.259 63.0578 301.825 61.5887 304.478 60.6095C307.156 59.6448 309.786 59.1974 312.368 59.2675C314.963 59.3115 317.354 59.9396 319.54 61.1517C321.258 62.1041 322.483 63.2086 323.215 64.4653C323.988 65.7104 324.358 67.0382 324.324 68.4488C324.317 69.8737 323.968 71.3308 323.279 72.8199C323.143 73.1871 323.084 73.4776 323.102 73.6915C323.16 73.8938 323.306 74.0598 323.54 74.1897C323.855 74.2964 324.101 74.4667 324.277 74.7007C324.454 74.9347 324.509 75.2034 324.443 75.507C324.345 75.929 324.079 76.2241 323.646 76.3921C323.253 76.5485 322.659 76.5765 321.864 76.476C320.3 76.2894 318.498 76.0727 316.457 75.8259C314.416 75.5791 312.316 75.3164 310.157 75.0378C308.038 74.7477 305.952 74.459 303.9 74.1717C301.873 73.8988 300.052 73.6547 298.436 73.4393C296.835 73.1979 295.544 73.0096 294.564 72.8746C293.61 72.754 293.133 72.6937 293.133 72.6937L294.115 70.278Z" fill="white"/>
<path d="M43.6987 404.456C44.5092 405.691 45.0528 406.936 45.3593 408.201C45.6657 409.456 45.725 410.731 45.5372 412.035C45.3494 413.35 44.9639 414.634 44.3708 415.889C43.7777 417.144 42.9771 418.38 41.9491 419.585C40.931 420.791 39.725 421.908 38.3313 422.925C36.9079 423.953 35.2967 424.872 33.4977 425.712C31.8568 426.483 30.2555 427.145 28.6839 427.669C27.1122 428.173 25.5801 428.548 24.0875 428.776C22.5653 429.003 21.1023 429.102 19.6888 429.062C18.2654 429.042 16.8915 428.865 15.5669 428.558C12.9277 427.936 10.5455 426.859 8.42033 425.297C6.32479 423.726 4.53566 421.74 3.0925 419.319C2.23254 417.846 1.62958 416.354 1.26385 414.881C0.937652 413.409 0.848692 411.956 1.02662 410.523C1.22431 409.12 1.65923 407.786 2.34127 406.531C3.02331 405.286 3.95247 404.11 5.11886 403.023C6.30502 401.966 7.70864 401.047 9.31984 400.226C10.9212 399.406 12.7399 398.714 14.7762 398.131C16.3775 397.647 17.959 397.252 19.5109 396.965C21.0331 396.659 22.5554 396.471 24.0183 396.382C25.4812 396.274 26.9046 396.264 28.2588 396.353C29.6229 396.432 30.9178 396.59 32.1633 396.857C34.674 397.37 36.8684 398.26 38.8156 399.544C40.7728 400.76 42.4038 402.41 43.6987 404.456ZM6.55213 418.34C7.19463 419.437 8.09414 420.366 9.25065 421.166C10.417 421.957 11.7712 422.57 13.3231 423.014C14.9145 423.42 16.6246 423.617 18.4829 423.637C20.3313 423.617 22.2984 423.39 24.3742 422.955C26.4401 422.52 28.5751 421.819 30.7794 420.88C32.529 420.149 34.0611 419.368 35.356 418.538C36.641 417.718 37.7184 416.848 38.5389 415.949C40.2489 414.121 41.1978 412.322 41.3857 410.523C41.6427 408.764 41.3263 407.183 40.4268 405.78C39.8733 404.891 39.0232 404.12 37.9161 403.487C36.8585 402.855 35.6031 402.361 34.1105 402.025C32.6278 401.689 30.9672 401.501 29.1583 401.452C27.3396 401.402 25.4121 401.551 23.3165 401.847C21.2803 402.124 19.1254 402.638 16.8816 403.329C15.0233 403.893 13.3923 404.505 11.9887 405.177C10.5851 405.859 9.39891 406.6 8.44999 407.411C6.61144 409.021 5.53402 410.8 5.25725 412.717C5.0299 414.625 5.46482 416.512 6.55213 418.34ZM49.6097 464.588C49.8469 464.964 49.7876 465.369 49.4515 465.784C49.0957 466.199 48.5718 466.476 47.87 466.644C46.0215 467.069 44.0644 467.039 41.9985 466.515C39.9425 465.962 38.183 464.954 36.7399 463.462C35.6624 462.355 35.0891 461.278 35.0199 460.211C34.9705 459.153 35.4647 458.165 36.4631 457.256C36.9969 456.762 37.6591 456.297 38.4993 455.902C39.3593 455.457 40.5356 454.953 42.0677 454.331C43.58 453.738 45.5767 452.937 48.0578 451.89C49.3033 451.386 50.697 450.793 52.2489 450.111C53.7909 449.429 55.4812 448.658 57.3395 447.799L58.0512 448.777C55.8172 449.854 53.6821 450.753 51.6261 451.495C49.5701 452.216 47.5932 452.759 45.7052 453.165C43.8173 453.52 42.0084 453.758 40.3082 453.866C38.5982 453.955 36.9969 453.906 35.4944 453.738C32.4895 453.372 29.8898 452.641 27.7547 451.554C25.6394 450.447 24.0084 449.232 22.8717 447.838C21.5175 446.158 20.9343 444.577 21.132 443.194C21.3396 441.82 22.2094 440.575 23.7514 439.498C25.2737 438.391 27.3989 437.413 30.0875 436.533C30.0875 436.533 31.244 436.148 32.9837 435.535C34.7234 434.922 37.0265 434.082 39.3198 433.232C41.6031 432.373 43.8865 431.493 45.5866 430.811C47.2868 430.139 48.4235 429.685 48.4235 429.685C50.4993 428.825 51.9128 428.025 52.6739 427.313C53.4548 426.621 53.5734 425.93 53.01 425.238C52.5751 424.724 52.0116 424.348 51.2802 424.111C50.5685 423.864 49.5504 423.746 48.2357 423.706C47.5932 423.667 47.1385 423.607 46.8519 423.489C46.585 423.41 46.4268 423.222 46.3873 422.965C46.2983 422.629 46.4169 422.293 46.7925 421.927C47.1879 421.572 47.8008 421.315 48.5817 421.157C50.3115 420.86 52.0808 420.969 53.8502 421.453C55.6195 421.947 57.0232 422.827 58.0709 424.082C58.9111 425.07 59.2867 426.028 59.1582 427.007C59.0396 428.005 58.4861 428.973 57.4877 429.952C56.4993 430.871 55.0858 431.76 53.2571 432.6C53.2571 432.6 52.0512 433.124 50.2423 433.924C48.4235 434.725 45.9919 435.752 43.5603 436.78C41.1089 437.788 38.6575 438.766 36.8091 439.508C34.9507 440.219 33.7053 440.693 33.7053 440.693C30.6707 441.84 28.7827 442.956 28.0809 444.093C27.4285 445.229 27.6064 446.435 28.6641 447.7C29.6031 448.807 31.0265 449.716 32.9442 450.358C34.842 451 37.1254 451.336 39.7448 451.356C41.0496 451.366 42.4235 451.277 43.8469 451.089C45.2703 450.892 46.753 450.605 48.2752 450.21C49.837 449.824 51.4087 449.33 53.01 448.718C54.6014 448.115 56.2126 447.393 57.8535 446.573C59.4844 445.763 60.7596 445.071 61.6591 444.547C62.5586 444.014 63.2505 443.569 63.7052 443.243C64.1994 442.927 64.575 442.62 64.8222 442.344C65.4053 441.761 65.8798 441.197 66.206 440.644C66.552 440.091 66.9869 439.557 67.5009 439.043C68.2324 438.302 69.0528 438.015 69.9918 438.154C70.921 438.292 71.8501 438.796 72.7595 439.666C73.7875 440.614 73.9655 441.603 73.3328 442.67C72.7398 443.698 71.089 444.962 68.3806 446.415C68.3806 446.415 67.0264 447.146 64.9902 448.224C63.9721 448.767 62.7859 449.39 61.491 450.052C60.1961 450.724 58.8222 451.415 57.4383 452.107C56.0446 452.789 54.6508 453.461 53.356 454.103C52.0413 454.726 50.8156 455.309 49.7579 455.813C47.6426 456.781 46.2192 457.424 46.2192 457.424C44.0051 458.422 42.5323 459.301 41.8502 460.072C41.1781 460.853 41.2374 461.614 41.959 462.365C42.4828 462.889 43.1945 463.284 44.0446 463.561C44.9342 463.867 46.2192 463.956 47.8601 463.827C48.384 463.808 48.7892 463.847 49.066 464.005C49.3626 464.134 49.5306 464.341 49.6097 464.588ZM73.8172 451.811C73.5898 451.435 73.6096 451.07 73.8666 450.664C74.1434 450.279 74.5981 449.983 75.2208 449.765C76.4762 449.35 77.7216 449.103 78.9572 449.024C80.2125 448.915 81.3592 448.985 82.4465 449.222C83.5536 449.469 84.5124 449.923 85.2933 450.556C86.2224 451.287 86.7265 452.127 86.7661 453.095C86.8649 454.044 86.4893 455.062 85.659 456.129C85.2241 456.702 84.6013 457.355 83.8106 458.046C83.0198 458.738 81.9424 459.548 80.5882 460.497C79.2439 461.436 77.4152 462.651 75.1121 464.094C73.9753 464.806 72.6804 465.606 71.2373 466.476C69.7941 467.345 68.1829 468.294 66.4136 469.332L65.3658 468.719C67.491 467.326 69.4976 466.08 71.4053 464.984C73.3131 463.867 75.1022 462.908 76.8023 462.088C78.4827 461.278 80.0742 460.566 81.5569 459.983C83.0396 459.4 84.4135 458.936 85.6985 458.6C88.2587 457.878 90.4432 457.552 92.2422 457.641C94.0313 457.71 95.4448 458.106 96.4827 458.817C97.7776 459.687 98.4695 460.784 98.5486 462.138C98.6969 463.491 98.2619 464.924 97.2537 466.505C96.6211 467.484 95.9193 468.235 95.1581 468.768C94.4069 469.243 93.6952 469.529 92.9638 469.599C92.2422 469.648 91.6096 469.49 91.0362 469.095C90.3937 468.66 90.028 468.175 89.9786 467.632C89.9489 467.108 90.0972 466.575 90.4827 466.041C90.8089 465.557 91.1647 465.161 91.5799 464.825C92.0148 464.509 92.4498 464.045 92.8847 463.402C93.1516 462.997 93.2405 462.592 93.1021 462.236C92.9934 461.851 92.687 461.495 92.2026 461.159C91.145 460.418 89.425 460.26 86.9835 460.685C85.7875 460.873 84.4531 461.219 83 461.722C81.5272 462.207 79.9358 462.839 78.2159 463.62C76.486 464.391 74.6969 465.29 72.8089 466.357C70.921 467.385 68.944 468.571 66.8782 469.895C64.5651 471.358 62.9638 472.415 62.0742 473.117C61.2241 473.868 60.5718 474.49 60.1269 475.024C59.6031 475.656 59.2769 476.2 59.1484 476.664C59.0396 477.119 58.9704 477.534 58.921 477.899C58.8815 478.255 58.7134 478.65 58.4169 479.006C57.9919 479.51 57.3988 479.807 56.6574 479.846C55.9556 479.876 55.1747 479.698 54.295 479.283C53.4548 478.917 52.6146 478.364 51.7843 477.652C50.8947 476.882 50.4103 476.131 50.3313 475.37C50.3016 474.648 50.7168 473.858 51.5668 473.057C52.4565 472.286 53.8106 471.427 55.6393 470.518C55.6393 470.518 57.0034 469.767 59.0495 468.64C60.0578 468.067 61.234 467.395 62.5091 466.673C63.7645 465.942 65.1088 465.161 66.4333 464.391C67.7579 463.59 69.0923 462.79 70.3279 462.039C71.5635 461.278 72.7101 460.576 73.6986 459.944C75.6458 458.728 76.9407 457.908 76.9407 457.908C78.9572 456.633 80.2422 455.576 80.8056 454.726C81.4086 453.896 81.3493 453.165 80.6475 452.582C80.2323 452.265 79.6294 452.078 78.8089 452.008C78.0182 451.969 76.8419 452.078 75.29 452.315C74.8748 452.354 74.5585 452.325 74.3114 452.246C74.0643 452.157 73.8963 452.018 73.8172 451.811ZM128.38 479.975C126.651 479.214 124.506 479.164 121.955 479.826C120.68 480.113 119.376 480.597 118.041 481.249C116.697 481.912 115.333 482.742 113.929 483.76C112.516 484.748 111.171 485.943 109.867 487.337C108.552 488.72 107.287 490.301 106.081 492.07C104.756 494.037 103.778 495.855 103.145 497.555C102.512 499.245 102.226 500.836 102.305 502.298C102.522 505.204 104.114 507.378 107.079 508.791C108.374 509.394 109.827 509.72 111.418 509.769C113.03 509.799 114.72 509.463 116.489 508.791C118.278 508.089 120.038 506.913 121.807 505.273C122.351 504.848 122.806 504.571 123.191 504.443C123.577 504.334 123.952 504.354 124.318 504.502C124.763 504.67 125.01 505.046 125.069 505.609C125.138 506.162 124.713 506.913 123.784 507.842C122.657 509.008 121.382 510.036 119.949 510.925C118.506 511.815 116.914 512.487 115.184 512.961C113.484 513.416 111.626 513.534 109.649 513.356C107.712 513.129 105.685 512.546 103.55 511.528C101.366 510.461 99.6557 509.176 98.4497 507.684C97.2438 506.182 96.5618 504.492 96.3542 502.615C96.1664 500.717 96.4432 498.741 97.145 496.666C97.8665 494.6 99.0132 492.426 100.585 490.173C101.534 488.78 102.542 487.475 103.639 486.27C104.726 485.064 105.893 483.957 107.119 482.929C108.354 481.862 109.619 480.953 110.914 480.143C112.209 479.332 113.524 478.631 114.848 478.028C116.193 477.395 117.527 476.921 118.842 476.555C120.166 476.2 121.481 475.972 122.796 475.864C124.1 475.755 125.366 475.795 126.611 476.002C127.847 476.19 129.072 476.546 130.259 477.05C132.028 477.791 133.352 478.73 134.222 479.896C135.142 481.052 135.685 482.376 135.843 483.819C136.011 485.262 135.824 486.724 135.29 488.177C134.726 489.689 133.975 490.746 133.016 491.369C132.048 491.942 131.089 492.06 130.13 491.695C129.418 491.418 128.964 491.013 128.717 490.469C128.469 489.916 128.499 489.333 128.776 488.661C129.013 488.068 129.3 487.544 129.626 487.1C130.002 486.675 130.318 486.121 130.595 485.439C131.079 484.234 131.118 483.157 130.733 482.169C130.357 481.2 129.576 480.459 128.38 479.975ZM158.766 486.546C160.199 486.902 161.454 487.436 162.542 488.137C163.629 488.839 164.558 489.738 165.31 490.805C166.081 491.883 166.674 493.088 167.109 494.403C167.543 495.727 167.81 497.189 167.889 498.751C167.978 500.332 167.86 501.982 167.543 503.672C167.217 505.391 166.693 507.16 165.942 509.008C165.29 510.698 164.568 512.279 163.787 513.732C162.987 515.185 162.137 516.499 161.207 517.695C160.249 518.91 159.26 519.987 158.202 520.936C157.155 521.885 156.038 522.695 154.861 523.387C152.519 524.75 150.038 525.58 147.418 525.926C144.829 526.233 142.17 525.996 139.461 525.225C137.801 524.75 136.338 524.078 135.072 523.248C133.817 522.408 132.759 521.41 131.899 520.234C131.069 519.088 130.476 517.823 130.11 516.44C129.764 515.066 129.636 513.574 129.745 511.993C129.863 510.411 130.239 508.771 130.852 507.071C131.464 505.382 132.315 503.622 133.402 501.814C134.232 500.342 135.112 498.968 136.031 497.703C136.95 496.428 137.909 495.272 138.917 494.185C139.916 493.098 140.934 492.12 141.982 491.25C143.02 490.381 144.077 489.61 145.174 488.938C147.339 487.604 149.553 486.734 151.847 486.349C154.11 485.884 156.413 485.963 158.766 486.546ZM141.3 522.142C142.496 522.487 143.8 522.566 145.194 522.339C146.578 522.122 147.982 521.628 149.425 520.896C150.848 520.096 152.252 519.078 153.596 517.793C154.941 516.528 156.216 515.017 157.431 513.267C158.627 511.538 159.705 509.572 160.654 507.378C161.425 505.629 161.998 504.018 162.374 502.516C162.749 501.043 162.917 499.68 162.908 498.434C162.878 495.954 162.334 493.997 161.267 492.545C160.229 491.092 158.924 490.153 157.313 489.768C156.265 489.491 155.148 489.511 153.913 489.817C152.697 490.084 151.451 490.588 150.137 491.369C148.812 492.14 147.478 493.147 146.123 494.363C144.789 495.559 143.474 496.992 142.16 498.642C140.875 500.243 139.639 502.081 138.473 504.136C137.524 505.816 136.753 507.388 136.199 508.84C135.646 510.303 135.3 511.647 135.181 512.882C134.934 515.333 135.379 517.359 136.496 518.93C137.642 520.471 139.244 521.549 141.3 522.142ZM190.931 526.144C190.931 526.144 191.494 524.829 192.354 522.873C193.184 520.896 194.281 518.268 195.349 515.629C196.387 513.001 197.415 510.352 198.166 508.366C198.907 506.38 199.392 505.046 199.392 505.046C200.479 501.992 200.795 499.867 200.39 498.612C200.005 497.337 199.174 496.685 197.879 496.656C196.248 496.586 194.331 497.387 192.077 499.027C190.96 499.848 189.814 500.856 188.657 502.041C187.491 503.237 186.305 504.611 185.099 506.172C183.883 507.714 182.697 509.443 181.58 511.34C180.443 513.228 179.346 515.293 178.318 517.527C177.487 519.167 176.855 520.471 176.41 521.45C175.985 522.418 175.659 523.159 175.461 523.703C175.293 524.227 175.174 524.701 175.135 525.106C175.016 525.907 175.016 526.658 175.085 527.3C175.214 527.923 175.234 528.604 175.145 529.355C175.006 530.363 174.433 531.095 173.405 531.529C172.407 531.964 171.141 532.083 169.609 531.856C167.949 531.599 167.059 530.828 166.94 529.602C166.842 528.357 167.583 526.42 169.155 523.752C169.155 523.752 169.926 522.398 171.072 520.363C171.626 519.335 172.278 518.139 172.98 516.855C173.662 515.57 174.393 514.196 175.115 512.833C175.827 511.449 176.538 510.066 177.181 508.771C177.843 507.467 178.436 506.261 178.95 505.214C179.959 503.138 180.631 501.755 180.631 501.755C181.688 499.61 182.222 498.029 182.242 497.011C182.281 495.964 181.847 495.401 180.957 495.292C180.245 495.193 179.454 495.371 178.624 495.816C177.804 496.201 176.894 496.893 175.866 497.861C175.56 498.108 175.273 498.237 174.987 498.266C174.759 498.286 174.552 498.237 174.354 498.108C173.998 497.96 173.82 497.644 173.83 497.179C173.86 496.666 174.057 496.181 174.463 495.737C175.718 494.225 177.191 493.039 178.891 492.149C180.611 491.27 182.262 490.904 183.863 491.082C185.118 491.211 186.048 491.655 186.611 492.416C187.234 493.148 187.491 494.175 187.362 495.539C187.303 496.231 187.115 497.021 186.799 497.921C186.502 498.79 185.978 499.986 185.286 501.429C184.604 502.901 183.675 504.818 182.469 507.21C181.876 508.386 181.214 509.71 180.463 511.222C179.702 512.734 178.861 514.404 177.922 516.242L176.687 515.876C177.428 514.414 178.199 513.01 178.95 511.686C179.711 510.372 180.463 509.127 181.214 507.961C182.697 505.609 184.189 503.583 185.692 501.863C187.194 500.124 188.637 498.632 190.031 497.387C191.415 496.142 192.769 495.144 194.094 494.403C195.418 493.642 196.644 493.078 197.8 492.703C198.937 492.317 200.005 492.149 200.983 492.169C202.594 492.199 203.8 492.644 204.621 493.572C205.441 494.462 205.876 495.786 205.876 497.525C205.896 498.266 205.777 499.146 205.55 500.134C205.352 501.083 204.986 502.269 204.443 503.721C203.909 505.194 203.128 507.052 202.1 509.374C201.586 510.51 201.003 511.805 200.341 513.258C199.669 514.71 198.927 516.311 198.107 518.07L197.642 517.566C198.542 515.264 199.471 513.119 200.43 511.153C201.359 509.186 202.318 507.388 203.316 505.777C204.285 504.146 205.273 502.674 206.242 501.369C207.22 500.055 208.189 498.889 209.158 497.901C211.056 495.845 212.904 494.323 214.664 493.315C216.423 492.278 218.034 491.734 219.487 491.636C221.207 491.477 222.482 491.873 223.352 492.821C224.202 493.711 224.716 495.094 224.855 497.002C225.013 498.889 224.815 501.172 224.252 503.879C224.252 503.879 223.975 505.065 223.589 506.864C223.184 508.652 222.64 511.044 222.077 513.426C221.484 515.807 220.891 518.199 220.426 519.987C219.952 521.766 219.636 522.962 219.636 522.962C219.013 525.156 218.756 526.756 218.904 527.804C219.023 528.802 219.606 529.286 220.654 529.197C221.405 529.148 222.136 528.881 222.878 528.377C223.599 527.883 224.479 526.984 225.517 525.719C225.843 525.403 226.14 525.195 226.357 525.067C226.584 524.938 226.792 524.928 227 524.997C227.346 525.067 227.573 525.353 227.672 525.847C227.8 526.312 227.682 526.885 227.355 527.587C226.407 529.355 225.141 530.877 223.53 532.093C221.909 533.279 220.1 533.96 218.094 534.089C216.522 534.178 215.296 533.862 214.446 533.16C213.636 532.458 213.161 531.391 213.042 530.057C212.963 528.683 213.22 527.033 213.814 525.086C213.814 525.086 214.179 523.812 214.733 521.894C215.267 519.977 215.968 517.408 216.66 514.858C217.313 512.299 217.965 509.73 218.43 507.793C218.894 505.876 219.201 504.581 219.201 504.581C219.893 501.419 219.972 499.245 219.477 498.049C219.003 496.843 218.123 496.29 216.828 496.389C215.217 496.478 213.398 497.436 211.332 499.304C210.314 500.223 209.286 501.34 208.248 502.634C207.201 503.939 206.153 505.421 205.085 507.101C204.018 508.761 203.01 510.579 202.08 512.576C201.122 514.572 200.242 516.716 199.421 519.048C198.809 520.768 198.314 522.132 197.959 523.14C197.593 524.138 197.336 524.918 197.188 525.482C197.069 526.005 196.99 526.5 196.99 526.905C196.96 527.715 197.019 528.446 197.168 529.089C197.346 529.701 197.435 530.383 197.405 531.124C197.375 532.152 196.891 532.933 195.932 533.447C194.983 533.99 193.748 534.217 192.206 534.148C191.069 534.089 190.258 533.783 189.774 533.249C189.339 532.676 189.211 531.836 189.408 530.699C189.626 529.533 190.15 528.021 190.931 526.144ZM244.238 484.313C244.238 484.313 244.199 485.301 244.13 487.011C244.061 488.72 243.942 491.181 243.784 494.116C243.685 495.588 243.586 497.189 243.477 498.879C243.349 500.559 243.21 502.338 243.062 504.186C242.904 506.034 242.726 507.931 242.548 509.878C242.351 511.805 242.143 513.771 241.925 515.748C241.688 517.714 241.451 519.671 241.224 521.608C240.967 523.555 240.71 525.452 240.453 527.3C240.186 529.148 239.919 530.927 239.662 532.617C239.395 534.306 239.138 535.917 238.891 537.38C238.377 540.334 237.932 542.805 237.636 544.515C237.299 546.244 237.121 547.232 237.121 547.232C236.924 548.309 237.023 549.1 237.388 549.643C237.774 550.147 238.446 550.414 239.395 550.394L242.756 550.315C243.507 550.276 244.07 550.375 244.436 550.562C244.832 550.8 245.098 551.116 245.158 551.511C245.237 552.045 245.069 552.509 244.634 552.885C244.238 553.27 243.635 553.537 242.815 553.655C242.815 553.655 238.772 554.288 234.739 554.871C230.667 555.385 226.624 555.81 226.624 555.81C225.418 555.938 224.568 555.869 224.044 555.602C223.53 555.345 223.263 554.97 223.234 554.476C223.194 554.061 223.382 553.685 223.767 553.339C224.103 553.013 224.865 552.697 225.981 552.361C227.197 551.995 228.107 551.62 228.789 551.234C229.421 550.869 229.935 550.464 230.281 549.94C230.637 549.465 230.884 548.843 231.033 548.102C231.033 548.102 231.23 547.123 231.606 545.414C231.952 543.704 232.466 541.253 233.049 538.318C233.336 536.846 233.632 535.275 233.939 533.595C234.245 531.915 234.551 530.136 234.868 528.298C235.174 526.47 235.481 524.573 235.787 522.645C236.084 520.718 236.37 518.762 236.657 516.805C236.904 514.849 237.171 512.892 237.418 510.955C237.655 509.028 237.873 507.141 238.09 505.312C238.288 503.474 238.466 501.695 238.634 500.016C238.792 498.336 238.93 496.754 239.069 495.292C239.296 492.357 239.484 489.906 239.593 488.197C239.711 486.487 239.78 485.519 239.78 485.519C239.78 485.005 239.83 484.501 239.909 484.046C239.998 483.572 240.087 483.167 240.215 482.831C240.364 482.465 240.551 482.159 240.739 481.892C240.937 481.625 241.164 481.427 241.411 481.269C241.649 481.101 241.916 480.983 242.212 480.913C242.924 480.765 243.448 480.993 243.774 481.605C244.1 482.188 244.248 483.088 244.238 484.313ZM234.769 500.846C234.413 501.488 234.047 501.893 233.662 502.111C233.257 502.338 232.881 502.358 232.476 502.199C232.07 501.952 231.833 501.547 231.804 500.935C231.794 500.302 231.962 499.67 232.318 499.008C233.355 496.804 234.621 494.936 236.094 493.335C237.566 491.744 239.227 490.44 241.125 489.402C242.983 488.374 245.069 487.594 247.372 487.05C248.736 486.734 250.061 486.635 251.316 486.704C252.581 486.783 253.797 487.06 254.973 487.515C256.169 487.979 257.276 488.661 258.294 489.55C259.332 490.45 260.281 491.556 261.151 492.881C262.031 494.195 262.802 495.766 263.454 497.565C264.116 499.383 264.66 501.429 265.065 503.731C265.481 505.974 265.668 508.119 265.649 510.155C265.619 512.2 265.382 514.137 264.897 515.975C264.413 517.803 263.761 519.483 262.94 520.995C262.11 522.527 261.102 523.881 259.935 525.096C258.749 526.272 257.454 527.241 256.06 528.011C254.657 528.772 253.154 529.316 251.543 529.662C249.912 529.988 248.37 530.116 246.927 530.047C245.484 529.978 244.169 529.701 242.953 529.237C240.542 528.278 238.733 526.5 237.458 523.91L240.028 522.3C241.115 523.93 242.459 525.126 244.031 525.916C245.632 526.658 247.678 526.796 250.14 526.322C252.393 525.837 254.36 524.612 256.011 522.616C256.841 521.588 257.543 520.442 258.126 519.157C258.7 517.872 259.164 516.469 259.5 514.928C259.836 513.386 260.004 511.775 260.044 510.085C260.074 508.386 259.945 506.617 259.668 504.759C259.401 502.832 259.046 501.112 258.571 499.6C258.117 498.098 257.563 496.814 256.92 495.746C255.635 493.563 254.133 492.12 252.413 491.379C250.743 490.618 248.953 490.46 247.065 490.894C245.721 491.181 244.456 491.606 243.29 492.159C242.113 492.713 241.016 493.395 240.018 494.205C239 495.005 238.051 495.954 237.171 497.061C236.301 498.168 235.5 499.423 234.769 500.846ZM300.186 501.814C300.64 504.314 301.164 505.945 301.767 506.676C302.4 507.378 303.062 507.565 303.764 507.229C304.377 506.943 304.92 506.469 305.365 505.777C305.83 505.055 306.245 503.958 306.601 502.516C306.729 501.952 306.897 501.567 307.125 501.34C307.382 501.112 307.619 500.974 307.866 500.954C308.281 500.885 308.607 501.073 308.835 501.518C309.082 501.923 309.21 502.535 309.21 503.316C309.082 505.48 308.548 507.348 307.55 508.929C306.561 510.51 305.247 511.696 303.576 512.487C302.153 513.129 300.887 513.287 299.78 512.922C298.693 512.506 297.843 511.617 297.26 510.283C297.013 509.74 296.775 509.068 296.538 508.267C296.321 507.447 296.083 506.34 295.846 504.996C295.589 503.632 295.312 501.903 294.996 499.818C294.68 497.703 294.324 495.094 293.919 492.011L295.095 492.555C295.125 495.243 295.046 497.762 294.838 500.075C294.601 502.407 294.255 504.542 293.79 506.488C293.316 508.425 292.762 510.174 292.11 511.736C291.448 513.307 290.677 514.69 289.846 515.876C288.097 518.208 286.07 519.799 283.747 520.649C280.792 521.697 278.212 521.252 276.027 519.355C274.96 518.386 274.08 517.062 273.388 515.382C272.706 513.692 272.202 511.647 271.886 509.275C271.688 507.872 271.55 506.469 271.51 505.036C271.461 503.622 271.481 502.17 271.56 500.727C271.668 499.294 271.836 497.861 272.064 496.448C272.291 495.045 272.588 493.651 272.943 492.278C273.309 490.904 273.754 489.58 274.238 488.305C274.713 487.03 275.286 485.785 275.899 484.609C276.492 483.404 277.174 482.267 277.906 481.22C278.647 480.143 279.457 479.164 280.337 478.245C281.197 477.307 282.136 476.486 283.164 475.755C284.182 475.014 285.26 474.372 286.436 473.838C287.939 473.117 289.273 472.642 290.429 472.435C291.606 472.188 292.594 472.197 293.405 472.464C294.205 472.711 294.798 473.225 295.174 474.006C295.411 474.54 295.52 475.083 295.49 475.646C295.471 476.15 295.411 476.684 295.342 477.267C295.303 477.82 295.362 478.433 295.5 479.095C295.5 479.095 295.826 480.508 296.311 482.623C296.548 483.68 296.815 484.916 297.111 486.24C297.398 487.564 297.695 488.987 297.991 490.4C298.268 491.813 298.565 493.246 298.822 494.58C299.088 495.914 299.316 497.17 299.523 498.237C299.919 500.381 300.186 501.814 300.186 501.814ZM277.075 507.259C277.293 508.988 277.639 510.471 278.103 511.716C278.578 512.951 279.161 513.969 279.892 514.73C281.395 516.222 282.967 516.647 284.607 516.044C286.298 515.412 287.751 514.028 288.966 511.884C289.56 510.807 290.083 509.621 290.548 508.346C290.983 507.061 291.368 505.678 291.665 504.186C291.971 502.684 292.199 501.152 292.357 499.6C292.515 498.039 292.614 496.468 292.653 494.857C292.663 493.236 292.624 491.685 292.525 490.163C292.426 488.651 292.258 487.179 292.051 485.756C291.616 482.9 291.032 480.518 290.311 478.611C289.985 477.811 289.52 477.356 288.917 477.227C288.344 477.079 287.385 477.307 286.1 477.919C284.766 478.522 283.56 479.51 282.502 480.874C281.424 482.198 280.485 483.819 279.655 485.756C278.785 487.683 278.153 489.807 277.658 492.159C277.154 494.472 276.838 496.932 276.719 499.502C276.591 502.071 276.7 504.66 277.075 507.259ZM302.716 474.688C302.271 474.787 301.906 474.599 301.639 474.115C301.352 473.611 301.223 473.018 301.233 472.326C301.263 470.35 301.698 468.571 302.528 466.98C303.339 465.359 304.416 464.124 305.8 463.284C306.897 462.602 307.886 462.365 308.825 462.602C309.754 462.79 310.594 463.442 311.335 464.588C311.711 465.171 312.047 465.913 312.324 466.832C312.63 467.731 312.976 468.966 313.342 470.518C313.718 472.099 314.162 474.174 314.696 476.793C314.943 478.087 315.23 479.55 315.566 481.21C315.892 482.86 316.258 484.698 316.663 486.714L315.438 487.218C314.983 484.777 314.607 482.475 314.37 480.301C314.103 478.127 313.955 476.091 313.925 474.184C313.896 472.296 313.935 470.518 314.064 468.877C314.172 467.227 314.37 465.715 314.647 464.321C315.181 461.564 315.922 459.292 316.92 457.493C317.899 455.655 318.986 454.291 320.182 453.402C321.596 452.315 322.91 451.919 324.166 452.226C325.421 452.493 326.617 453.372 327.764 454.884C328.871 456.376 329.948 458.432 330.947 461.031C330.947 461.031 331.362 462.167 332.004 463.897C332.627 465.616 333.457 467.928 334.268 470.241C335.059 472.563 335.849 474.885 336.423 476.635C336.986 478.403 337.362 479.56 337.362 479.56C338.034 481.753 338.696 483.236 339.368 484.036C340.011 484.827 340.752 484.896 341.602 484.264C342.087 483.898 342.492 483.354 342.818 482.593C343.134 481.852 343.312 480.657 343.382 479.056C343.421 478.571 343.53 478.216 343.678 477.979C343.826 477.741 343.994 477.613 344.202 477.613C344.597 477.465 344.973 477.544 345.319 477.89C345.695 478.196 345.942 478.759 346.06 479.55C346.169 481.991 345.912 484.026 345.279 485.667C344.657 487.278 343.579 488.671 342.096 489.758C340.811 490.687 339.615 491.082 338.528 490.954C337.451 490.796 336.472 490.163 335.662 489.096C334.851 487.999 334.169 486.467 333.615 484.501C333.615 484.501 333.24 483.226 332.667 481.319C332.073 479.411 331.293 476.891 330.482 474.352C329.642 471.852 328.802 469.342 328.149 467.464C327.507 465.606 327.062 464.361 327.062 464.361C325.975 461.307 324.868 459.42 323.81 458.689C322.732 457.948 321.635 457.997 320.499 458.837C319.49 459.568 318.65 460.794 317.958 462.513C317.266 464.233 316.772 466.347 316.466 468.877C316.317 470.142 316.228 471.476 316.199 472.879C316.159 474.292 316.179 475.795 316.258 477.366C316.337 478.937 316.505 480.577 316.752 482.257C316.999 483.947 317.326 485.696 317.751 487.495C318.156 489.284 318.472 490.697 318.7 491.734C318.947 492.772 319.154 493.563 319.332 494.126C319.52 494.63 319.728 495.075 319.925 495.42C320.35 496.122 320.795 496.705 321.26 497.17C321.744 497.594 322.179 498.118 322.564 498.77C323.088 499.64 323.088 500.559 322.574 501.508C322.07 502.466 321.141 503.336 319.777 504.117C318.284 504.966 317.118 504.917 316.248 504.008C315.418 503.119 314.805 501.112 314.41 498.049C314.41 498.049 314.182 496.507 313.807 494.195C313.629 493.039 313.411 491.695 313.154 490.262C312.907 488.819 312.63 487.287 312.354 485.756C312.077 484.234 311.78 482.712 311.494 481.289C311.197 479.866 310.93 478.542 310.693 477.395C310.199 475.142 309.882 473.65 309.882 473.65C309.359 471.328 308.795 469.767 308.182 468.946C307.599 468.087 306.897 467.909 306.107 468.373C305.444 468.788 304.92 469.381 304.555 470.182C304.219 470.972 303.971 471.97 303.813 473.146C303.744 473.7 303.616 474.075 303.408 474.292C303.2 474.53 302.973 474.648 302.716 474.688ZM354.403 466.15C355.154 468.027 355.905 469.302 356.657 470.004C357.428 470.656 358.199 470.636 358.97 469.935C359.444 469.51 359.849 468.877 360.166 468.007C360.492 467.138 360.62 465.982 360.541 464.539C360.492 463.995 360.541 463.62 360.66 463.373C360.808 463.086 361.006 462.898 361.233 462.81C361.599 462.602 361.965 462.691 362.4 463.076C362.815 463.412 363.101 463.985 363.25 464.825C363.665 466.92 363.596 468.897 363.003 470.755C362.38 472.563 361.381 474.095 359.998 475.34C358.811 476.387 357.645 476.882 356.508 476.891C355.372 476.822 354.294 476.269 353.296 475.261C352.327 474.223 351.457 472.682 350.726 470.646C350.726 470.646 350.202 469.282 349.421 467.227C349.006 466.209 348.541 465.013 348.037 463.738C347.523 462.464 346.97 461.12 346.406 459.756C345.843 458.422 345.279 457.078 344.746 455.833C344.202 454.568 343.698 453.402 343.243 452.404C342.363 450.417 341.76 449.093 341.76 449.093C340.95 447.305 340.139 446.059 339.358 445.387C338.578 444.686 337.836 444.636 337.164 445.259C336.699 445.704 336.373 446.306 336.195 447.117C336.017 447.858 335.988 448.965 336.067 450.388C336.087 450.803 336.047 451.129 335.958 451.386C335.84 451.613 335.642 451.771 335.345 451.84C335.029 451.959 334.673 451.84 334.307 451.504C333.922 451.099 333.655 450.536 333.457 449.795C333.062 447.878 333.062 446.069 333.477 444.399C333.853 442.699 334.604 441.316 335.76 440.229C336.709 439.34 337.678 438.944 338.726 439.033C339.764 439.093 340.802 439.597 341.83 440.575C342.877 441.504 343.846 442.887 344.726 444.715C344.726 444.715 345.368 446.03 346.317 448.006C346.802 448.994 347.345 450.151 347.928 451.396C348.502 452.651 349.115 453.985 349.727 455.319C350.33 456.663 350.923 458.007 351.477 459.272C352.031 460.537 352.535 461.732 352.98 462.74C353.83 464.796 354.403 466.15 354.403 466.15ZM332.123 431.315C331.49 431.928 330.709 432.165 329.83 432.057C328.96 431.928 328.129 431.434 327.319 430.584C326.736 429.962 326.271 429.25 325.945 428.43C325.619 427.61 325.461 426.809 325.5 426.019C325.55 425.238 325.866 424.556 326.459 423.973C327.092 423.35 327.833 423.093 328.683 423.212C329.563 423.321 330.423 423.775 331.253 424.596C331.866 425.188 332.35 425.89 332.716 426.7C333.082 427.501 333.23 428.321 333.141 429.151C333.082 429.962 332.756 430.693 332.123 431.315ZM359.009 447.393C359.009 447.393 359.246 446.87 359.671 445.812C360.087 444.755 360.62 443.362 361.253 441.622C361.895 439.863 362.548 437.936 363.26 435.812C363.922 433.687 364.554 431.592 365.147 429.487C365.721 427.343 366.205 425.426 366.61 423.696L367.461 425.307C367.095 424.754 366.65 424.25 366.166 423.795C365.691 423.331 365.098 422.827 364.396 422.293C362.904 421.157 361.48 420.603 360.136 420.574C358.772 420.554 357.606 421.147 356.617 422.372C355.678 423.538 355.134 425.03 354.986 426.839C354.828 428.637 355.045 430.683 355.648 432.946C356.202 435.219 357.141 437.6 358.475 440.11C359.128 441.365 359.869 442.611 360.719 443.846C361.559 445.091 362.508 446.326 363.556 447.552C365.019 449.271 366.462 450.615 367.866 451.583C369.279 452.542 370.683 453.115 372.067 453.293C374.825 453.59 377.256 452.532 379.322 450.16C380.271 449.054 381.003 447.68 381.536 446.05C382.06 444.399 382.258 442.571 382.1 440.585C381.942 438.569 381.309 436.454 380.172 434.221C379.915 433.519 379.797 432.936 379.816 432.501C379.816 432.057 379.974 431.711 380.251 431.434C380.528 431.118 380.884 431.009 381.309 431.128C381.754 431.226 382.218 431.622 382.703 432.343C383.968 434.043 384.877 436.098 385.451 438.49C385.955 440.881 385.935 443.431 385.312 446.119C385.016 447.453 384.512 448.787 383.81 450.101C383.098 451.415 382.199 452.7 381.111 453.985C378.917 456.465 376.604 458.017 374.143 458.659C371.701 459.242 369.259 458.946 366.858 457.78C365.661 457.197 364.465 456.406 363.289 455.428C362.113 454.439 360.956 453.273 359.81 451.91C358.663 450.536 357.615 449.123 356.706 447.68C355.797 446.237 354.996 444.755 354.324 443.243C353.622 441.731 353.049 440.229 352.594 438.757C352.129 437.274 351.783 435.812 351.556 434.379C351.329 432.936 351.21 431.543 351.22 430.199C351.22 428.855 351.349 427.57 351.576 426.335C351.991 423.815 352.94 421.651 354.423 419.803C355.579 418.35 356.805 417.382 358.169 416.917C359.493 416.384 360.907 416.275 362.34 416.542C363.813 416.808 365.276 417.382 366.769 418.32C367.124 418.498 367.431 418.617 367.648 418.627C367.856 418.597 368.034 418.479 368.202 418.251C368.33 417.965 368.538 417.737 368.805 417.599C369.042 417.451 369.348 417.431 369.655 417.55C370.09 417.698 370.357 418.004 370.505 418.479C370.624 418.894 370.604 419.496 370.416 420.297C370.06 421.858 369.635 423.667 369.121 425.722C368.587 427.768 367.994 429.863 367.372 432.037C366.699 434.152 365.988 436.237 365.306 438.292C364.594 440.318 363.942 442.136 363.339 443.767C362.716 445.358 362.202 446.633 361.806 447.611C361.431 448.56 361.253 449.034 361.253 449.034L359.009 447.393ZM399.853 423.469C401.108 421.443 401.523 419.566 401.128 417.836C400.683 416.087 399.773 414.812 398.38 413.992C397.638 413.567 396.818 413.31 395.938 413.192C395.029 413.043 393.892 413.093 392.479 413.36C391.075 413.597 389.286 414.061 387.121 414.743C384.571 415.514 382.436 415.988 380.726 416.176C379.026 416.314 377.523 416.196 376.278 415.87C374.993 415.504 373.767 414.881 372.541 414.022C370.811 412.757 369.536 411.205 368.716 409.397C367.905 407.588 367.599 405.622 367.777 403.527C367.935 401.412 368.657 399.268 369.951 397.094C371.009 395.246 372.166 393.823 373.431 392.835C374.676 391.807 375.942 391.174 377.187 390.967C378.442 390.759 379.579 390.888 380.597 391.412C381.447 391.846 381.971 392.321 382.199 392.835C382.426 393.358 382.406 393.892 382.11 394.435C381.853 394.93 381.437 395.295 380.904 395.503C380.36 395.72 379.51 395.809 378.353 395.819C376.94 395.779 375.754 396.017 374.785 396.58C373.816 397.074 372.976 397.934 372.274 399.149C371.138 401.047 370.831 402.904 371.316 404.772C371.75 406.62 372.778 408.073 374.439 409.14C375.18 409.604 376.06 409.99 377.039 410.257C378.037 410.533 379.243 410.603 380.647 410.474C382.1 410.336 383.879 409.95 386.034 409.328C388.772 408.369 390.996 407.756 392.745 407.5C394.515 407.213 395.988 407.223 397.174 407.49C398.35 407.747 399.487 408.211 400.525 408.893C402.106 409.881 403.292 411.235 404.073 412.935C404.844 414.654 405.101 416.621 404.834 418.844C404.508 421.048 403.599 423.38 402.057 425.841C400.614 428.084 398.983 429.833 397.233 431.039C395.454 432.225 393.754 432.906 392.113 433.094C390.502 433.223 389.167 432.896 388.09 432.136C387.398 431.632 386.973 431.068 386.834 430.446C386.676 429.803 386.775 429.21 387.171 428.647C387.526 428.153 387.991 427.847 388.604 427.699C389.187 427.511 389.968 427.471 390.937 427.629C392.904 428.064 394.614 427.906 396.067 427.135C397.549 426.325 398.805 425.1 399.853 423.469Z" fill="white"/>
</svg>
