<svg width="647" height="643" viewBox="0 0 647 643" fill="none" xmlns="http://www.w3.org/2000/svg">
<path d="M301.745 17.4322C314.842 11.1251 321.39 7.97146 328.238 6.72877C334.304 5.62789 340.519 5.62789 346.586 6.72877C353.433 7.97146 359.982 11.1251 373.079 17.4323L552.934 104.046C566.031 110.353 572.58 113.507 577.821 118.086C582.464 122.142 586.339 127.001 589.261 132.431C592.559 138.559 594.176 145.645 597.411 159.818L641.831 354.437C645.066 368.609 646.683 375.695 646.371 382.648C646.095 388.807 644.712 394.866 642.288 400.536C639.553 406.935 635.021 412.618 625.958 423.983L501.494 580.056C492.431 591.421 487.899 597.103 482.268 601.194C477.281 604.818 471.681 607.515 465.738 609.155C459.029 611.006 451.761 611.006 437.224 611.006H237.599C223.063 611.006 215.795 611.006 209.086 609.155C203.143 607.515 197.543 604.818 192.555 601.194C186.925 597.103 182.393 591.421 173.329 580.056L48.8656 423.983C39.8022 412.618 35.2705 406.935 32.5352 400.536C30.112 394.866 28.7291 388.807 28.4524 382.648C28.1402 375.695 29.7576 368.609 32.9923 354.437L77.4129 159.817C80.6476 145.645 82.2649 138.559 85.5629 132.431C88.4845 127.001 92.3595 122.142 97.0025 118.086C102.244 113.507 108.792 110.353 121.889 104.046L301.745 17.4322Z" fill="#FBBC40"/>
</svg>
