<svg width="180" height="24" viewBox="0 0 180 24" fill="none" xmlns="http://www.w3.org/2000/svg">
<g id="Layer_1" clip-path="url(#clip0_105_4)">
<g id="Group">
<path id="Vector" d="M63.6502 23.7598L61.3402 19.7598C62.4202 17.6898 62.4202 15.2498 62.4202 12.0398C62.4202 8.0398 62.4202 5.0398 60.1102 2.6098C59.3142 1.74129 58.3378 1.05757 57.2494 0.60667C56.161 0.155774 54.9872 -0.0513647 53.8102 -0.000196279C52.6365 -0.0260966 51.4702 0.19258 50.3856 0.641923C49.3009 1.09127 48.3217 1.76144 47.5102 2.6098C45.2002 4.9298 45.2002 7.8698 45.2002 11.9998C45.2002 16.1298 45.0802 18.9998 47.5102 21.4198C48.3155 22.2809 49.2935 22.9625 50.3802 23.4198C51.467 23.8653 52.6364 24.0733 53.8102 24.0298C54.4669 24.0202 55.1207 23.9397 55.7602 23.7898L63.6502 23.7598ZM50.7902 18.6098C49.9502 17.6098 49.7102 16.5298 49.7102 11.9998C49.7102 7.4698 50.0002 6.3598 50.7902 5.3898C51.1746 5.00618 51.6297 4.70056 52.1302 4.4898C52.6266 4.27834 53.1606 4.16949 53.7002 4.1698C54.2429 4.17059 54.78 4.27937 55.2802 4.4898C55.7776 4.7008 56.2294 5.00647 56.6102 5.3898C57.4502 6.3898 57.6902 7.4698 57.6902 11.9998C57.6902 16.5298 57.4502 17.6298 56.6102 18.6098C56.2383 19.0042 55.7889 19.3175 55.2902 19.5298C54.7843 19.7297 54.2441 19.8283 53.7002 19.8198C53.1584 19.8307 52.6203 19.7285 52.1202 19.5198C51.6197 19.3098 51.1672 19.0002 50.7902 18.6098Z" fill="black"/>
<path id="Vector_2" d="M116.83 0.239746H121.3V23.7597H116.83V0.239746Z" fill="black"/>
<path id="Vector_3" d="M8.49 23.9996C5 23.9996 2.32 23.2696 0 20.9396L2.91 17.9996C3.66184 18.6851 4.54207 19.2148 5.49983 19.5581C6.4576 19.9014 7.4739 20.0514 8.49 19.9996C11.16 19.9996 12.61 18.9996 12.61 17.0596C12.6238 16.6985 12.566 16.3383 12.44 15.9996C12.3179 15.664 12.1272 15.3575 11.88 15.0996C11.3014 14.6025 10.5803 14.3015 9.82 14.2396L7 13.8496C5.3268 13.7072 3.75118 13.0023 2.53 11.8496C1.9684 11.2262 1.53364 10.4993 1.25 9.70963C0.951472 8.90798 0.818792 8.05407 0.86 7.19963C0.84 3.05963 3.87 0.119629 9 0.119629C12.15 0.119629 14.58 0.839629 16.53 2.80963L13.59 5.63963C12.9564 5.05323 12.2079 4.60471 11.392 4.32242C10.5761 4.04013 9.71055 3.93021 8.85 3.99963C6.42 3.99963 5.22 5.35963 5.22 6.99963C5.23924 7.63633 5.49609 8.24278 5.94 8.69963C6.56854 9.22106 7.32431 9.56616 8.13 9.69963L10.92 10.0596C12.587 10.1047 14.1787 10.7635 15.39 11.9096C16.0105 12.5827 16.4929 13.3709 16.81 14.2296C17.1201 15.0981 17.2594 16.0183 17.22 16.9396C17.22 21.4496 13.35 24.0296 8.48 24.0296" fill="black"/>
<path id="Vector_4" d="M23.75 23.7597V0.239746H39.14V4.23975H28.34V9.78975H37.54V13.9997H28.35V19.7697H39.15V23.7697H23.75" fill="black"/>
<path id="Vector_5" d="M77.8102 23.9997C73.0702 23.9997 69.2002 20.6997 69.2002 15.6797V0.239746H73.8302V15.5397C73.8302 18.2397 75.4202 19.8197 77.8302 19.8197C80.2402 19.8197 81.8302 18.2097 81.8302 15.5397V0.239746H86.3002V15.6597C86.3002 20.6597 82.5802 23.9797 77.8402 23.9797" fill="black"/>
<path id="Vector_6" d="M107.86 21.4198C107.063 22.2865 106.086 22.9683 104.998 23.4175C103.91 23.8666 102.736 24.0722 101.56 24.0198C100.388 24.0518 99.2221 23.8368 98.1384 23.3889C97.0548 22.9409 96.0775 22.2701 95.27 21.4198C93 19.0898 93 16.1498 93 11.9998C93 7.8498 92.88 4.9998 95.32 2.5798C96.1091 1.72085 97.0765 1.04486 98.1544 0.599188C99.2324 0.153513 100.395 -0.0510619 101.56 -0.00020367C102.732 -0.0166317 103.894 0.205388 104.977 0.652356C106.06 1.09932 107.041 1.7619 107.86 2.5998C110.17 4.9298 110.17 7.8698 110.17 12.0198C110.17 16.1698 110.17 18.9998 107.86 21.4198ZM104.47 5.4198C104.09 5.03612 103.637 4.73156 103.139 4.52372C102.64 4.31588 102.105 4.20887 101.565 4.20887C101.025 4.20887 100.49 4.31588 99.9913 4.52372C99.4927 4.73156 99.0402 5.03612 98.66 5.4198C97.81 6.4198 97.58 7.4998 97.58 12.0298C97.58 16.5598 97.81 17.6598 98.66 18.6298C99.0389 19.0159 99.4909 19.3226 99.9897 19.532C100.489 19.7414 101.024 19.8492 101.565 19.8492C102.106 19.8492 102.641 19.7414 103.14 19.532C103.639 19.3226 104.091 19.0159 104.47 18.6298C105.31 17.6298 105.55 16.5598 105.55 12.0298C105.55 7.4998 105.34 6.3598 104.47 5.3898V5.4198Z" fill="black"/>
<path id="Vector_7" d="M142.78 23.7597L141.45 19.5997H133.2L131.76 23.7597H127L135.52 0.239746H139L147.49 23.7597H142.78ZM137.31 7.08975L134.4 15.6597H140.22L137.31 7.08975Z" fill="black"/>
<path id="Vector_8" d="M174.18 0.239746H180V6.11975H174.18V0.239746Z" fill="black"/>
<path id="Vector_9" d="M159.63 18.6997V0.239746H156.72V21.6697L159.63 18.6997Z" fill="black"/>
<path id="Vector_10" d="M161.67 20.8198L158.76 23.7598H180V20.8198H161.67Z" fill="black"/>
<path id="Vector_11" d="M165.45 12.8497V0.239746H162.54V15.7897L165.45 12.8497Z" fill="black"/>
<path id="Vector_12" d="M167.49 14.9399L164.57 17.8799H180V14.9399H167.49Z" fill="black"/>
<path id="Vector_13" d="M171.26 6.99975V0.239746H168.35V9.90975L171.26 6.99975Z" fill="black"/>
<path id="Vector_14" d="M173.31 9.05957L170.41 11.9996H180V9.05957H173.31Z" fill="black"/>
</g>
</g>
<defs>
<clipPath id="clip0_105_4">
<rect width="180" height="24" fill="white"/>
</clipPath>
</defs>
</svg>
