<svg width="24" height="24" viewBox="0 0 24 24" fill="none" xmlns="http://www.w3.org/2000/svg">
<rect x="10" y="4" width="6" height="2" fill="black"/>
<rect x="16" y="18" width="6" height="2" transform="rotate(-180 16 18)" fill="black"/>
<rect x="20" y="8" width="6" height="2" transform="rotate(90 20 8)" fill="black"/>
<rect x="6" y="14" width="6" height="2" transform="rotate(-90 6 14)" fill="black"/>
<rect x="10" y="6" width="2" height="2" transform="rotate(90 10 6)" fill="black"/>
<rect width="2" height="2" transform="matrix(4.37114e-08 1 1 -4.37114e-08 16 6)" fill="black"/>
<rect width="2" height="2" transform="matrix(4.37114e-08 -1 -1 -4.37114e-08 10 16)" fill="black"/>
<rect width="2" height="2" transform="matrix(4.37114e-08 -1 -1 -4.37114e-08 8 18)" fill="black"/>
<rect width="2" height="2" transform="matrix(4.37114e-08 -1 -1 -4.37114e-08 6 20)" fill="black"/>
<rect width="2" height="2" transform="matrix(-1 0 0 1 18 14)" fill="black"/>
</svg>
